inDegrees=no
num_controls=7
num_derivatives=13
num_iterations=83
num_multipliers=7
num_parameters=0
num_slacks=7
num_states=26
objective=0.334786
objective_accelerations=0.035510
objective_balance=0.001377
objective_effort=0.026837
objective_height=0.269411
objective_ligament=0.001651
solver_duration=883.637298
status=Solve_Succeeded
success=true
DataType=double
version=3
OpenSimVersion=4.5
endheader
time	/jointset/ground_pelvis/pelvis_tilt/value	/jointset/ground_pelvis/pelvis_tx/value	/jointset/ground_pelvis/pelvis_ty/value	/jointset/hip_r/hip_flexion_r/value	/jointset/hip_r/hip_adduction_r/value	/jointset/hip_r/hip_rotation_r/value	/jointset/back/lumbar_extension/value	/jointset/patellofemoral_r/patellar_flexion_r/value	/jointset/knee_r/knee_flexion_r/value	/jointset/knee_r/knee_adduction_r/value	/jointset/knee_r/knee_rotation_r/value	/jointset/ankle_r/ankle_angle_r/value	/jointset/subtalar_r/subtalar_angle_r/value	/jointset/ground_pelvis/pelvis_tilt/speed	/jointset/ground_pelvis/pelvis_tx/speed	/jointset/ground_pelvis/pelvis_ty/speed	/jointset/hip_r/hip_flexion_r/speed	/jointset/hip_r/hip_adduction_r/speed	/jointset/hip_r/hip_rotation_r/speed	/jointset/back/lumbar_extension/speed	/jointset/patellofemoral_r/patellar_flexion_r/speed	/jointset/knee_r/knee_flexion_r/speed	/jointset/knee_r/knee_adduction_r/speed	/jointset/knee_r/knee_rotation_r/speed	/jointset/ankle_r/ankle_angle_r/speed	/jointset/subtalar_r/subtalar_angle_r/speed	/forceset/tau_hip_flexion_r	/forceset/tau_hip_adduction_r	/forceset/tau_hip_rotation_r	/forceset/tau_knee_flexion_r	/forceset/tau_ankle_angle_r	/forceset/tau_subtalar_angle_r	/forceset/tau_lumbar_extension	lambda_cid13_p0	lambda_cid14_p0	lambda_cid14_p1	lambda_cid14_p2	lambda_cid14_p3	lambda_cid14_p4	lambda_cid14_p5	/jointset/ground_pelvis/pelvis_tilt/accel	/jointset/ground_pelvis/pelvis_tx/accel	/jointset/ground_pelvis/pelvis_ty/accel	/jointset/hip_r/hip_flexion_r/accel	/jointset/hip_r/hip_adduction_r/accel	/jointset/hip_r/hip_rotation_r/accel	/jointset/back/lumbar_extension/accel	/jointset/patellofemoral_r/patellar_flexion_r/accel	/jointset/knee_r/knee_flexion_r/accel	/jointset/knee_r/knee_adduction_r/accel	/jointset/knee_r/knee_rotation_r/accel	/jointset/ankle_r/ankle_angle_r/accel	/jointset/subtalar_r/subtalar_angle_r/accel	gamma_cid13_p0	gamma_cid14_p0	gamma_cid14_p1	gamma_cid14_p2	gamma_cid14_p3	gamma_cid14_p4	gamma_cid14_p5
0.5	-0.1695302654281333	0.0354609309058466	0.8094907416120403	0.8989138677521057	-0.2394973036678114	-0.08659004520678196	-0.6448286429973058	0.9403417604301966	0.9403417604301965	0.01576016868560726	0.1745295621378755	0.2924802928109299	0.1116009355765088	-0.4244459655636456	-0.2003813519478939	-0.4847469424439924	1.892622686805829	-0.009702652925621056	0.317512637586661	-0.7379947523508552	1.898280100434378	1.898280100434384	-0.3123007162778344	-2.346811605961231e-05	0.5277309745963847	0.1729209696003517	-0.2130200630316333	0.02137955364227669	0.02593365613650181	-0.2614367202073577	-0.02747449903193788	-0.01152090249640274	0.2479431718200441	-8.854940253248259	-51.76799455422499	-12.77482572216444	0.9817839234305799	-1.826941338703102	-640.7334497316305	49.77100661707934	0.326357368270447	0.5552182052373528	-0.4119534829129105	-1.265886760868449	-0.1121090963555931	-0.2776904918776987	1.780706378230046	-1.333825716100211	-1.333825716100209	0.6755942965821403	-0.05207538145800526	-0.5423749318165082	-0.2043570685762136	-2.249132621184619e-08	1.399904635990745e-07	2.341281837867626e-06	1.326016704326062e-06	-3.438761896215704e-07	-5.383187080709137e-09	1.45244116819439e-06
0.51	-0.1737575017268718	0.03348506181388183	0.8046237938264079	0.9177738740879482	-0.2396000462638357	-0.08343243109584624	-0.6521189706007549	0.959254894934814	0.9592548949348161	0.0126689471815421	0.174529448017795	0.2977295623724372	0.1133194117856919	-0.4209328075196348	-0.1947751381541984	-0.4885345101635599	1.87912442337517	-0.01083940674901776	0.3140103214612222	-0.7199841302300443	1.884091623215704	1.88409162321571	-0.3059187539065722	-1.425889712444175e-06	0.5220474147685463	0.1707472663063793	-0.2198605107466977	0.02280444678844542	0.02598786909829707	-0.2655788626785534	-0.02906382264095186	-0.01109029985809227	0.2541256709623987	-7.891638111188822	-52.57616096837795	-12.87770922744624	1.16768282043608	-1.74019286587261	-645.6035754601654	49.80269850858109	0.374082627748731	0.5658515087995243	-0.3459456104410865	-1.429900614516301	-0.1131485894392184	-0.3865114856927188	1.824235845326158	-1.499629808459987	-1.499629808460052	0.6235582690923852	0.02935851415687753	-0.5927545774889865	-0.2273892942474838	-2.731080765737326e-08	1.354651785469775e-07	2.375873164399915e-06	1.255559972079285e-06	-3.449810653253152e-07	-1.841879841836612e-08	1.528335447110743e-06
0.52	-0.177947548924112	0.0315657605683269	0.7997222129247873	0.9364912768934149	-0.2397138944109149	-0.08030984200872726	-0.6592265928397317	0.9780184904505036	0.9780184904505058	0.009642357513537134	0.1745295572178721	0.3029197147218215	0.1150154484950475	-0.417008145264335	-0.189067782665927	-0.4916735656416276	1.864101980730446	-0.01192376313671728	0.3105076328231543	-0.7014536794564553	1.868372302648668	1.868372302648674	-0.2993743490675468	2.119591566699142e-05	0.5159075321718488	0.168433069634818	-0.2267009584617631	0.02422933993462015	0.0260420820600583	-0.2697210051497516	-0.03065314624996436	-0.01065969721977147	0.2603081701047518	-6.985944284474559	-53.38313062559465	-12.97652267441888	1.348524775467963	-1.669928699018553	-650.4609307364503	49.8347703698378	0.4086582105282612	0.5754465441525227	-0.2822510346129448	-1.570722603681189	-0.1016296092161613	-0.2777649944034933	1.884672108785681	-1.639994385772602	-1.639994385772602	0.7080827901347539	-0.05195946565154617	-0.6336394855883264	-0.2324557440939947	-2.685470761400585e-08	1.268611326598852e-07	2.259381392858037e-06	1.139458020387043e-06	-3.277568218398058e-07	-2.662127429363457e-08	1.5054854562508e-06
0.53	-0.1820963404445289	0.02970396669885747	0.7947925114094914	0.9550509711791262	-0.2398384451778102	-0.07722161986237905	-0.6661464438777829	0.9966174031391573	0.9966174031391587	0.006682659220787885	0.1745296387185477	0.3080461926582845	0.1166874195202418	-0.4126832381413604	-0.1832804665624958	-0.494155095366256	1.847590127815884	-0.0129839340685449	0.3071592265884493	-0.6824460633432319	1.851166169333416	1.851166169333418	-0.29251356413576	-7.764060421886667e-06	0.5093143949263076	0.1659260169203974	-0.2334389893460332	0.0256044151707321	0.02598739006504834	-0.2739362213578931	-0.03234222448633394	-0.01024034983551083	0.2663611180059239	-6.138818313412304	-54.23118607909204	-13.08376088162798	1.526530841580001	-1.510028760743476	-655.3973080865627	49.85944282613396	0.4544582106221235	0.5818891012801714	-0.2143638196261242	-1.728412135219485	-0.1075613142738461	-0.360057164911157	1.919376084158927	-1.797527343671298	-1.797527343671764	0.6831310466321081	0.02148499442999585	-0.6832705694545919	-0.2646242512830466	-2.743851707146884e-08	1.175706467163798e-07	2.135587638771338e-06	1.01952568635096e-06	-3.098145136317744e-07	-3.201151765354816e-08	1.466683721161774e-06
0.54	-0.1861998726442267	0.02790034898199082	0.7898413426213015	0.9734381478357174	-0.239973467749845	-0.07416621752375958	-0.6728741048103881	1.015036933586805	1.015036933586804	0.003793179717744993	0.1745294004710659	0.3131045152772086	0.1183333611750586	-0.4079562811207871	-0.177432552145372	-0.4959670202204209	1.829598454906291	-0.01401812416468423	0.3039436712774575	-0.6630156583672816	1.832495854447376	1.832495854447375	-0.2853305911267155	-4.275371580850909e-05	0.5022764686640633	0.1632271955592985	-0.240177020230306	0.02697949040684471	0.02593269807003182	-0.2781514375660358	-0.0340313027227036	-0.00982100245124906	0.2724140659070937	-5.350642082352388	-55.07821829142456	-13.18639937308118	1.698755876983895	-1.369488311531701	-660.3268408535471	49.89073555841004	0.4890681900480021	0.5875662068910409	-0.1483300605202475	-1.866686602687544	-0.09643344207850463	-0.2511948096608821	1.969229881331053	-1.932830699929935	-1.932830699929935	0.7725204055862684	-0.05316540151108495	-0.7225972889289456	-0.2708094734296702	-2.917286470006335e-08	1.075206951785451e-07	2.003715095486112e-06	8.953554824876494e-07	-2.910777508371229e-07	-3.42903548262606e-08	1.410233247776741e-06
